<mxfile host="app.diagrams.net" agent="Mozilla/5.0 (Windows NT 10.0; Win64; x64) AppleWebKit/537.36 (KHTML, like Gecko) Chrome/141.0.0.0 Safari/537.36" version="28.2.5" pages="3">
  <diagram name="Diagrama-General" id="RX7Bu4cHH-E7TM2fHkPo">
    <mxGraphModel dx="1042" dy="570" grid="1" gridSize="10" guides="1" tooltips="1" connect="1" arrows="1" fold="1" page="1" pageScale="1" pageWidth="850" pageHeight="1100" math="0" shadow="0">
      <root>
        <mxCell id="0" />
        <mxCell id="1" parent="0" />
        <mxCell id="7owVH_cDT0P-uTN8tJlN-1" value="Diseño de Arquitectura Técnica&lt;div&gt;General&lt;/div&gt;" style="text;html=1;align=center;verticalAlign=middle;whiteSpace=wrap;rounded=0;fontSize=18;fontStyle=1" parent="1" vertex="1">
          <mxGeometry x="220" y="40" width="410" height="30" as="geometry" />
        </mxCell>
        <mxCell id="7owVH_cDT0P-uTN8tJlN-20" style="edgeStyle=orthogonalEdgeStyle;rounded=0;orthogonalLoop=1;jettySize=auto;html=1;entryX=0;entryY=0.5;entryDx=0;entryDy=0;" parent="1" source="7owVH_cDT0P-uTN8tJlN-3" target="7owVH_cDT0P-uTN8tJlN-7" edge="1">
          <mxGeometry relative="1" as="geometry" />
        </mxCell>
        <mxCell id="7owVH_cDT0P-uTN8tJlN-3" value="Web App" style="swimlane;whiteSpace=wrap;html=1;" parent="1" vertex="1">
          <mxGeometry x="50" y="200" width="200" height="210" as="geometry" />
        </mxCell>
        <mxCell id="7owVH_cDT0P-uTN8tJlN-6" value="FrontEnd" style="text;html=1;align=center;verticalAlign=middle;whiteSpace=wrap;rounded=0;" parent="7owVH_cDT0P-uTN8tJlN-3" vertex="1">
          <mxGeometry x="35" y="150" width="120" height="30" as="geometry" />
        </mxCell>
        <mxCell id="7owVH_cDT0P-uTN8tJlN-26" value="" style="sketch=0;outlineConnect=0;fontColor=#232F3E;gradientColor=none;strokeColor=#232F3E;fillColor=#ffffff;dashed=0;verticalLabelPosition=bottom;verticalAlign=top;align=center;html=1;fontSize=12;fontStyle=0;aspect=fixed;shape=mxgraph.aws4.resourceIcon;resIcon=mxgraph.aws4.topic;" parent="7owVH_cDT0P-uTN8tJlN-3" vertex="1">
          <mxGeometry x="55" y="50" width="80" height="80" as="geometry" />
        </mxCell>
        <mxCell id="7owVH_cDT0P-uTN8tJlN-21" style="edgeStyle=orthogonalEdgeStyle;rounded=0;orthogonalLoop=1;jettySize=auto;html=1;entryX=0;entryY=0.5;entryDx=0;entryDy=0;" parent="1" source="7owVH_cDT0P-uTN8tJlN-7" target="7owVH_cDT0P-uTN8tJlN-11" edge="1">
          <mxGeometry relative="1" as="geometry" />
        </mxCell>
        <mxCell id="7owVH_cDT0P-uTN8tJlN-23" style="edgeStyle=orthogonalEdgeStyle;rounded=0;orthogonalLoop=1;jettySize=auto;html=1;exitX=0;exitY=0.5;exitDx=0;exitDy=0;entryX=1;entryY=0.5;entryDx=0;entryDy=0;" parent="1" source="7owVH_cDT0P-uTN8tJlN-7" target="7owVH_cDT0P-uTN8tJlN-3" edge="1">
          <mxGeometry relative="1" as="geometry" />
        </mxCell>
        <mxCell id="7owVH_cDT0P-uTN8tJlN-7" value="Gateway" style="swimlane;whiteSpace=wrap;html=1;" parent="1" vertex="1">
          <mxGeometry x="295" y="200" width="200" height="210" as="geometry" />
        </mxCell>
        <mxCell id="7owVH_cDT0P-uTN8tJlN-27" value="API Gateway" style="sketch=0;outlineConnect=0;fontColor=#232F3E;gradientColor=none;strokeColor=#ffffff;fillColor=#232F3E;dashed=0;verticalLabelPosition=middle;verticalAlign=bottom;align=center;html=1;whiteSpace=wrap;fontSize=10;fontStyle=1;spacing=3;shape=mxgraph.aws4.productIcon;prIcon=mxgraph.aws4.api_gateway;" parent="7owVH_cDT0P-uTN8tJlN-7" vertex="1">
          <mxGeometry x="60" y="60" width="80" height="110" as="geometry" />
        </mxCell>
        <mxCell id="7owVH_cDT0P-uTN8tJlN-24" style="edgeStyle=orthogonalEdgeStyle;rounded=0;orthogonalLoop=1;jettySize=auto;html=1;entryX=1;entryY=0.5;entryDx=0;entryDy=0;" parent="1" source="7owVH_cDT0P-uTN8tJlN-11" target="7owVH_cDT0P-uTN8tJlN-7" edge="1">
          <mxGeometry relative="1" as="geometry" />
        </mxCell>
        <mxCell id="7owVH_cDT0P-uTN8tJlN-11" value="Microservices" style="swimlane;whiteSpace=wrap;html=1;" parent="1" vertex="1">
          <mxGeometry x="540" y="120" width="200" height="370" as="geometry" />
        </mxCell>
        <mxCell id="7owVH_cDT0P-uTN8tJlN-12" value="Microservice 1" style="text;html=1;align=center;verticalAlign=middle;whiteSpace=wrap;rounded=0;" parent="7owVH_cDT0P-uTN8tJlN-11" vertex="1">
          <mxGeometry x="40" y="110" width="120" height="30" as="geometry" />
        </mxCell>
        <mxCell id="7owVH_cDT0P-uTN8tJlN-14" value="Microservice 2" style="text;html=1;align=center;verticalAlign=middle;whiteSpace=wrap;rounded=0;" parent="7owVH_cDT0P-uTN8tJlN-11" vertex="1">
          <mxGeometry x="40" y="220" width="120" height="30" as="geometry" />
        </mxCell>
        <mxCell id="7owVH_cDT0P-uTN8tJlN-16" value="Microservice 3" style="text;html=1;align=center;verticalAlign=middle;whiteSpace=wrap;rounded=0;" parent="7owVH_cDT0P-uTN8tJlN-11" vertex="1">
          <mxGeometry x="40" y="330" width="120" height="30" as="geometry" />
        </mxCell>
        <mxCell id="7owVH_cDT0P-uTN8tJlN-28" value="" style="sketch=0;outlineConnect=0;fontColor=#232F3E;gradientColor=none;strokeColor=#232F3E;fillColor=#ffffff;dashed=0;verticalLabelPosition=bottom;verticalAlign=top;align=center;html=1;fontSize=12;fontStyle=0;aspect=fixed;shape=mxgraph.aws4.resourceIcon;resIcon=mxgraph.aws4.container_2;" parent="7owVH_cDT0P-uTN8tJlN-11" vertex="1">
          <mxGeometry x="70" y="40" width="60" height="60" as="geometry" />
        </mxCell>
        <mxCell id="7owVH_cDT0P-uTN8tJlN-29" value="" style="sketch=0;outlineConnect=0;fontColor=#232F3E;gradientColor=none;strokeColor=#232F3E;fillColor=#ffffff;dashed=0;verticalLabelPosition=bottom;verticalAlign=top;align=center;html=1;fontSize=12;fontStyle=0;aspect=fixed;shape=mxgraph.aws4.resourceIcon;resIcon=mxgraph.aws4.container_2;" parent="7owVH_cDT0P-uTN8tJlN-11" vertex="1">
          <mxGeometry x="70" y="155" width="60" height="60" as="geometry" />
        </mxCell>
        <mxCell id="7owVH_cDT0P-uTN8tJlN-30" value="" style="sketch=0;outlineConnect=0;fontColor=#232F3E;gradientColor=none;strokeColor=#232F3E;fillColor=#ffffff;dashed=0;verticalLabelPosition=bottom;verticalAlign=top;align=center;html=1;fontSize=12;fontStyle=0;aspect=fixed;shape=mxgraph.aws4.resourceIcon;resIcon=mxgraph.aws4.container_2;" parent="7owVH_cDT0P-uTN8tJlN-11" vertex="1">
          <mxGeometry x="70" y="260" width="60" height="60" as="geometry" />
        </mxCell>
        <mxCell id="7owVH_cDT0P-uTN8tJlN-25" style="edgeStyle=orthogonalEdgeStyle;rounded=0;orthogonalLoop=1;jettySize=auto;html=1;exitX=0;exitY=0.5;exitDx=0;exitDy=0;exitPerimeter=0;entryX=1;entryY=0.5;entryDx=0;entryDy=0;" parent="1" source="7owVH_cDT0P-uTN8tJlN-19" target="7owVH_cDT0P-uTN8tJlN-11" edge="1">
          <mxGeometry relative="1" as="geometry" />
        </mxCell>
        <mxCell id="7owVH_cDT0P-uTN8tJlN-19" value="DB_1" style="shape=cylinder3;whiteSpace=wrap;html=1;boundedLbl=1;backgroundOutline=1;size=15;" parent="1" vertex="1">
          <mxGeometry x="770" y="265" width="60" height="80" as="geometry" />
        </mxCell>
        <mxCell id="7owVH_cDT0P-uTN8tJlN-22" style="edgeStyle=orthogonalEdgeStyle;rounded=0;orthogonalLoop=1;jettySize=auto;html=1;exitX=1;exitY=0.5;exitDx=0;exitDy=0;entryX=0;entryY=0.5;entryDx=0;entryDy=0;entryPerimeter=0;" parent="1" source="7owVH_cDT0P-uTN8tJlN-11" target="7owVH_cDT0P-uTN8tJlN-19" edge="1">
          <mxGeometry relative="1" as="geometry" />
        </mxCell>
      </root>
    </mxGraphModel>
  </diagram>
  <diagram name="Diagrama-Arquitectura" id="yVnBXMzeYxImiPWEL_-t">
    <mxGraphModel dx="1737" dy="950" grid="1" gridSize="10" guides="1" tooltips="1" connect="1" arrows="1" fold="1" page="1" pageScale="1" pageWidth="850" pageHeight="1100" math="0" shadow="0">
      <root>
        <mxCell id="8ZB5fSzY0ybbtgeigNR6-0" />
        <mxCell id="8ZB5fSzY0ybbtgeigNR6-1" parent="8ZB5fSzY0ybbtgeigNR6-0" />
        <mxCell id="8ZB5fSzY0ybbtgeigNR6-2" value="Diseño de Arquitectura" style="text;html=1;align=center;verticalAlign=middle;whiteSpace=wrap;rounded=0;fontSize=18;fontStyle=1" vertex="1" parent="8ZB5fSzY0ybbtgeigNR6-1">
          <mxGeometry x="590" y="70" width="410" height="30" as="geometry" />
        </mxCell>
        <mxCell id="8ZB5fSzY0ybbtgeigNR6-3" style="edgeStyle=orthogonalEdgeStyle;rounded=0;orthogonalLoop=1;jettySize=auto;html=1;entryX=0;entryY=0.5;entryDx=0;entryDy=0;" edge="1" parent="8ZB5fSzY0ybbtgeigNR6-1" source="8ZB5fSzY0ybbtgeigNR6-4" target="8ZB5fSzY0ybbtgeigNR6-9">
          <mxGeometry relative="1" as="geometry" />
        </mxCell>
        <mxCell id="8ZB5fSzY0ybbtgeigNR6-4" value="Client Web" style="swimlane;whiteSpace=wrap;html=1;" vertex="1" parent="8ZB5fSzY0ybbtgeigNR6-1">
          <mxGeometry x="240" y="380" width="200" height="210" as="geometry" />
        </mxCell>
        <mxCell id="8ZB5fSzY0ybbtgeigNR6-5" value="app-spa-portal&lt;div&gt;&lt;br&gt;Angular Framework&lt;/div&gt;" style="text;html=1;align=center;verticalAlign=middle;whiteSpace=wrap;rounded=0;" vertex="1" parent="8ZB5fSzY0ybbtgeigNR6-4">
          <mxGeometry x="40" y="130" width="120" height="50" as="geometry" />
        </mxCell>
        <mxCell id="8ZB5fSzY0ybbtgeigNR6-6" value="" style="sketch=0;outlineConnect=0;fontColor=#232F3E;gradientColor=none;strokeColor=#232F3E;fillColor=#ffffff;dashed=0;verticalLabelPosition=bottom;verticalAlign=top;align=center;html=1;fontSize=12;fontStyle=0;aspect=fixed;shape=mxgraph.aws4.resourceIcon;resIcon=mxgraph.aws4.topic;" vertex="1" parent="8ZB5fSzY0ybbtgeigNR6-4">
          <mxGeometry x="55" y="50" width="80" height="80" as="geometry" />
        </mxCell>
        <mxCell id="8ZB5fSzY0ybbtgeigNR6-7" style="edgeStyle=orthogonalEdgeStyle;rounded=0;orthogonalLoop=1;jettySize=auto;html=1;entryX=0;entryY=0.5;entryDx=0;entryDy=0;" edge="1" parent="8ZB5fSzY0ybbtgeigNR6-1" source="8ZB5fSzY0ybbtgeigNR6-9" target="8ZB5fSzY0ybbtgeigNR6-12">
          <mxGeometry relative="1" as="geometry" />
        </mxCell>
        <mxCell id="8ZB5fSzY0ybbtgeigNR6-8" style="edgeStyle=orthogonalEdgeStyle;rounded=0;orthogonalLoop=1;jettySize=auto;html=1;exitX=0;exitY=0.5;exitDx=0;exitDy=0;entryX=1;entryY=0.5;entryDx=0;entryDy=0;" edge="1" parent="8ZB5fSzY0ybbtgeigNR6-1" source="8ZB5fSzY0ybbtgeigNR6-9" target="8ZB5fSzY0ybbtgeigNR6-4">
          <mxGeometry relative="1" as="geometry" />
        </mxCell>
        <mxCell id="2_EcdlZAJ1URfQFixVXK-9" style="edgeStyle=orthogonalEdgeStyle;rounded=0;orthogonalLoop=1;jettySize=auto;html=1;exitX=1;exitY=0.5;exitDx=0;exitDy=0;entryX=0;entryY=0.5;entryDx=0;entryDy=0;" edge="1" parent="8ZB5fSzY0ybbtgeigNR6-1" source="8ZB5fSzY0ybbtgeigNR6-9" target="2_EcdlZAJ1URfQFixVXK-3">
          <mxGeometry relative="1" as="geometry" />
        </mxCell>
        <mxCell id="2_EcdlZAJ1URfQFixVXK-10" style="edgeStyle=orthogonalEdgeStyle;rounded=0;orthogonalLoop=1;jettySize=auto;html=1;exitX=1;exitY=0.5;exitDx=0;exitDy=0;entryX=0;entryY=0.5;entryDx=0;entryDy=0;" edge="1" parent="8ZB5fSzY0ybbtgeigNR6-1" source="8ZB5fSzY0ybbtgeigNR6-9" target="2_EcdlZAJ1URfQFixVXK-6">
          <mxGeometry relative="1" as="geometry">
            <Array as="points">
              <mxPoint x="790" y="485" />
              <mxPoint x="790" y="695" />
            </Array>
          </mxGeometry>
        </mxCell>
        <mxCell id="2_EcdlZAJ1URfQFixVXK-36" style="edgeStyle=orthogonalEdgeStyle;rounded=0;orthogonalLoop=1;jettySize=auto;html=1;exitX=0.5;exitY=1;exitDx=0;exitDy=0;entryX=0.5;entryY=0;entryDx=0;entryDy=0;" edge="1" parent="8ZB5fSzY0ybbtgeigNR6-1" source="8ZB5fSzY0ybbtgeigNR6-9" target="2_EcdlZAJ1URfQFixVXK-26">
          <mxGeometry relative="1" as="geometry" />
        </mxCell>
        <mxCell id="8ZB5fSzY0ybbtgeigNR6-9" value="&lt;span style=&quot;font-weight: 400;&quot;&gt;asm-api-gateway&lt;/span&gt;" style="swimlane;whiteSpace=wrap;html=1;" vertex="1" parent="8ZB5fSzY0ybbtgeigNR6-1">
          <mxGeometry x="515" y="380" width="200" height="210" as="geometry" />
        </mxCell>
        <mxCell id="8ZB5fSzY0ybbtgeigNR6-10" value="API Gateway" style="sketch=0;outlineConnect=0;fontColor=#232F3E;gradientColor=none;strokeColor=#ffffff;fillColor=#232F3E;dashed=0;verticalLabelPosition=middle;verticalAlign=bottom;align=center;html=1;whiteSpace=wrap;fontSize=10;fontStyle=1;spacing=3;shape=mxgraph.aws4.productIcon;prIcon=mxgraph.aws4.api_gateway;" vertex="1" parent="8ZB5fSzY0ybbtgeigNR6-9">
          <mxGeometry x="60" y="60" width="80" height="110" as="geometry" />
        </mxCell>
        <mxCell id="2_EcdlZAJ1URfQFixVXK-2" value="Spring Boot + Cloud Gateway" style="text;html=1;align=center;verticalAlign=middle;whiteSpace=wrap;rounded=0;" vertex="1" parent="8ZB5fSzY0ybbtgeigNR6-9">
          <mxGeometry x="10" y="170" width="180" height="30" as="geometry" />
        </mxCell>
        <mxCell id="8ZB5fSzY0ybbtgeigNR6-11" style="edgeStyle=orthogonalEdgeStyle;rounded=0;orthogonalLoop=1;jettySize=auto;html=1;entryX=1;entryY=0.5;entryDx=0;entryDy=0;" edge="1" parent="8ZB5fSzY0ybbtgeigNR6-1" source="8ZB5fSzY0ybbtgeigNR6-12" target="8ZB5fSzY0ybbtgeigNR6-9">
          <mxGeometry relative="1" as="geometry" />
        </mxCell>
        <mxCell id="8ZB5fSzY0ybbtgeigNR6-12" value="Microservice_1" style="swimlane;whiteSpace=wrap;html=1;" vertex="1" parent="8ZB5fSzY0ybbtgeigNR6-1">
          <mxGeometry x="870" y="220" width="200" height="130" as="geometry" />
        </mxCell>
        <mxCell id="8ZB5fSzY0ybbtgeigNR6-16" value="" style="sketch=0;outlineConnect=0;fontColor=#232F3E;gradientColor=none;strokeColor=#232F3E;fillColor=#ffffff;dashed=0;verticalLabelPosition=bottom;verticalAlign=top;align=center;html=1;fontSize=12;fontStyle=0;aspect=fixed;shape=mxgraph.aws4.resourceIcon;resIcon=mxgraph.aws4.container_2;" vertex="1" parent="8ZB5fSzY0ybbtgeigNR6-12">
          <mxGeometry x="70" y="26" width="60" height="60" as="geometry" />
        </mxCell>
        <mxCell id="8ZB5fSzY0ybbtgeigNR6-13" value="asm-msa-customer&lt;div&gt;&lt;br&gt;&lt;div&gt;Spring Boot - OpenAPI&lt;/div&gt;&lt;/div&gt;" style="text;html=1;align=center;verticalAlign=middle;whiteSpace=wrap;rounded=0;" vertex="1" parent="8ZB5fSzY0ybbtgeigNR6-12">
          <mxGeometry x="10" y="86" width="180" height="40" as="geometry" />
        </mxCell>
        <mxCell id="2_EcdlZAJ1URfQFixVXK-13" style="edgeStyle=orthogonalEdgeStyle;rounded=0;orthogonalLoop=1;jettySize=auto;html=1;exitX=0;exitY=0.5;exitDx=0;exitDy=0;exitPerimeter=0;" edge="1" parent="8ZB5fSzY0ybbtgeigNR6-1" source="8ZB5fSzY0ybbtgeigNR6-20">
          <mxGeometry relative="1" as="geometry">
            <mxPoint x="1069.9999999999998" y="285.304347826087" as="targetPoint" />
          </mxGeometry>
        </mxCell>
        <mxCell id="8ZB5fSzY0ybbtgeigNR6-20" value="MariaDB" style="shape=cylinder3;whiteSpace=wrap;html=1;boundedLbl=1;backgroundOutline=1;size=15;" vertex="1" parent="8ZB5fSzY0ybbtgeigNR6-1">
          <mxGeometry x="1200" y="245" width="60" height="80" as="geometry" />
        </mxCell>
        <mxCell id="2_EcdlZAJ1URfQFixVXK-0" value="Arquitectura de Microservicios" style="text;html=1;align=center;verticalAlign=middle;whiteSpace=wrap;rounded=0;fontSize=18;fontStyle=1" vertex="1" parent="8ZB5fSzY0ybbtgeigNR6-1">
          <mxGeometry x="600" y="100" width="410" height="30" as="geometry" />
        </mxCell>
        <mxCell id="2_EcdlZAJ1URfQFixVXK-1" value="API Gateway Pattern" style="text;html=1;align=center;verticalAlign=middle;whiteSpace=wrap;rounded=0;fontSize=14;fontStyle=0" vertex="1" parent="8ZB5fSzY0ybbtgeigNR6-1">
          <mxGeometry x="515" y="340" width="190" height="30" as="geometry" />
        </mxCell>
        <mxCell id="2_EcdlZAJ1URfQFixVXK-3" value="Microservice_2" style="swimlane;whiteSpace=wrap;html=1;" vertex="1" parent="8ZB5fSzY0ybbtgeigNR6-1">
          <mxGeometry x="880" y="420" width="200" height="130" as="geometry" />
        </mxCell>
        <mxCell id="2_EcdlZAJ1URfQFixVXK-4" value="" style="sketch=0;outlineConnect=0;fontColor=#232F3E;gradientColor=none;strokeColor=#232F3E;fillColor=#ffffff;dashed=0;verticalLabelPosition=bottom;verticalAlign=top;align=center;html=1;fontSize=12;fontStyle=0;aspect=fixed;shape=mxgraph.aws4.resourceIcon;resIcon=mxgraph.aws4.container_2;" vertex="1" parent="2_EcdlZAJ1URfQFixVXK-3">
          <mxGeometry x="70" y="26" width="60" height="60" as="geometry" />
        </mxCell>
        <mxCell id="2_EcdlZAJ1URfQFixVXK-5" value="asm-msa-account&lt;div&gt;&lt;br&gt;&lt;div&gt;Spring Boot - OpenAPI&lt;/div&gt;&lt;/div&gt;" style="text;html=1;align=center;verticalAlign=middle;whiteSpace=wrap;rounded=0;" vertex="1" parent="2_EcdlZAJ1URfQFixVXK-3">
          <mxGeometry x="10" y="86" width="180" height="40" as="geometry" />
        </mxCell>
        <mxCell id="2_EcdlZAJ1URfQFixVXK-6" value="Microservice_3" style="swimlane;whiteSpace=wrap;html=1;" vertex="1" parent="8ZB5fSzY0ybbtgeigNR6-1">
          <mxGeometry x="880" y="630" width="200" height="130" as="geometry" />
        </mxCell>
        <mxCell id="2_EcdlZAJ1URfQFixVXK-7" value="" style="sketch=0;outlineConnect=0;fontColor=#232F3E;gradientColor=none;strokeColor=#232F3E;fillColor=#ffffff;dashed=0;verticalLabelPosition=bottom;verticalAlign=top;align=center;html=1;fontSize=12;fontStyle=0;aspect=fixed;shape=mxgraph.aws4.resourceIcon;resIcon=mxgraph.aws4.container_2;" vertex="1" parent="2_EcdlZAJ1URfQFixVXK-6">
          <mxGeometry x="70" y="26" width="60" height="60" as="geometry" />
        </mxCell>
        <mxCell id="2_EcdlZAJ1URfQFixVXK-8" value="asm-msa-transaction&lt;div&gt;&lt;br&gt;&lt;div&gt;Spring Boot - OpenAPI&lt;/div&gt;&lt;/div&gt;" style="text;html=1;align=center;verticalAlign=middle;whiteSpace=wrap;rounded=0;" vertex="1" parent="2_EcdlZAJ1URfQFixVXK-6">
          <mxGeometry x="10" y="86" width="180" height="40" as="geometry" />
        </mxCell>
        <mxCell id="2_EcdlZAJ1URfQFixVXK-11" value="Customer" style="text;html=1;align=center;verticalAlign=middle;whiteSpace=wrap;rounded=0;" vertex="1" parent="8ZB5fSzY0ybbtgeigNR6-1">
          <mxGeometry x="1170" y="325" width="120" height="30" as="geometry" />
        </mxCell>
        <mxCell id="2_EcdlZAJ1URfQFixVXK-12" style="edgeStyle=orthogonalEdgeStyle;rounded=0;orthogonalLoop=1;jettySize=auto;html=1;exitX=1;exitY=0.5;exitDx=0;exitDy=0;entryX=0;entryY=0.5;entryDx=0;entryDy=0;entryPerimeter=0;" edge="1" parent="8ZB5fSzY0ybbtgeigNR6-1" source="8ZB5fSzY0ybbtgeigNR6-12" target="8ZB5fSzY0ybbtgeigNR6-20">
          <mxGeometry relative="1" as="geometry" />
        </mxCell>
        <mxCell id="2_EcdlZAJ1URfQFixVXK-20" style="edgeStyle=orthogonalEdgeStyle;rounded=0;orthogonalLoop=1;jettySize=auto;html=1;exitX=0;exitY=0.5;exitDx=0;exitDy=0;exitPerimeter=0;entryX=1;entryY=0.5;entryDx=0;entryDy=0;" edge="1" parent="8ZB5fSzY0ybbtgeigNR6-1" source="2_EcdlZAJ1URfQFixVXK-14" target="2_EcdlZAJ1URfQFixVXK-3">
          <mxGeometry relative="1" as="geometry" />
        </mxCell>
        <mxCell id="2_EcdlZAJ1URfQFixVXK-14" value="MariaDB" style="shape=cylinder3;whiteSpace=wrap;html=1;boundedLbl=1;backgroundOutline=1;size=15;" vertex="1" parent="8ZB5fSzY0ybbtgeigNR6-1">
          <mxGeometry x="1200" y="445" width="60" height="80" as="geometry" />
        </mxCell>
        <mxCell id="2_EcdlZAJ1URfQFixVXK-15" value="Account" style="text;html=1;align=center;verticalAlign=middle;whiteSpace=wrap;rounded=0;" vertex="1" parent="8ZB5fSzY0ybbtgeigNR6-1">
          <mxGeometry x="1170" y="525" width="120" height="30" as="geometry" />
        </mxCell>
        <mxCell id="2_EcdlZAJ1URfQFixVXK-18" style="edgeStyle=orthogonalEdgeStyle;rounded=0;orthogonalLoop=1;jettySize=auto;html=1;exitX=1;exitY=0.5;exitDx=0;exitDy=0;entryX=0;entryY=0.5;entryDx=0;entryDy=0;entryPerimeter=0;" edge="1" parent="8ZB5fSzY0ybbtgeigNR6-1" source="2_EcdlZAJ1URfQFixVXK-3" target="2_EcdlZAJ1URfQFixVXK-14">
          <mxGeometry relative="1" as="geometry" />
        </mxCell>
        <mxCell id="2_EcdlZAJ1URfQFixVXK-23" style="edgeStyle=orthogonalEdgeStyle;rounded=0;orthogonalLoop=1;jettySize=auto;html=1;exitX=0;exitY=0.5;exitDx=0;exitDy=0;exitPerimeter=0;entryX=1;entryY=0.5;entryDx=0;entryDy=0;" edge="1" parent="8ZB5fSzY0ybbtgeigNR6-1" source="2_EcdlZAJ1URfQFixVXK-21" target="2_EcdlZAJ1URfQFixVXK-6">
          <mxGeometry relative="1" as="geometry" />
        </mxCell>
        <mxCell id="2_EcdlZAJ1URfQFixVXK-21" value="MariaDB" style="shape=cylinder3;whiteSpace=wrap;html=1;boundedLbl=1;backgroundOutline=1;size=15;" vertex="1" parent="8ZB5fSzY0ybbtgeigNR6-1">
          <mxGeometry x="1200" y="655" width="60" height="80" as="geometry" />
        </mxCell>
        <mxCell id="2_EcdlZAJ1URfQFixVXK-22" style="edgeStyle=orthogonalEdgeStyle;rounded=0;orthogonalLoop=1;jettySize=auto;html=1;exitX=1;exitY=0.5;exitDx=0;exitDy=0;entryX=0;entryY=0.5;entryDx=0;entryDy=0;entryPerimeter=0;" edge="1" parent="8ZB5fSzY0ybbtgeigNR6-1" source="2_EcdlZAJ1URfQFixVXK-6" target="2_EcdlZAJ1URfQFixVXK-21">
          <mxGeometry relative="1" as="geometry" />
        </mxCell>
        <mxCell id="2_EcdlZAJ1URfQFixVXK-24" value="Transaction" style="text;html=1;align=center;verticalAlign=middle;whiteSpace=wrap;rounded=0;" vertex="1" parent="8ZB5fSzY0ybbtgeigNR6-1">
          <mxGeometry x="1170" y="735" width="120" height="30" as="geometry" />
        </mxCell>
        <mxCell id="2_EcdlZAJ1URfQFixVXK-37" style="edgeStyle=orthogonalEdgeStyle;rounded=0;orthogonalLoop=1;jettySize=auto;html=1;exitX=0.5;exitY=0;exitDx=0;exitDy=0;entryX=0.5;entryY=1;entryDx=0;entryDy=0;" edge="1" parent="8ZB5fSzY0ybbtgeigNR6-1" source="2_EcdlZAJ1URfQFixVXK-26" target="8ZB5fSzY0ybbtgeigNR6-9">
          <mxGeometry relative="1" as="geometry" />
        </mxCell>
        <mxCell id="2_EcdlZAJ1URfQFixVXK-26" value="Identity Server" style="swimlane;whiteSpace=wrap;html=1;" vertex="1" parent="8ZB5fSzY0ybbtgeigNR6-1">
          <mxGeometry x="515" y="830" width="200" height="160" as="geometry" />
        </mxCell>
        <mxCell id="2_EcdlZAJ1URfQFixVXK-28" value="asm-msa-identity" style="text;html=1;align=center;verticalAlign=middle;whiteSpace=wrap;rounded=0;" vertex="1" parent="2_EcdlZAJ1URfQFixVXK-26">
          <mxGeometry x="10" y="119" width="180" height="40" as="geometry" />
        </mxCell>
        <mxCell id="2_EcdlZAJ1URfQFixVXK-25" value="User Identity" style="sketch=0;outlineConnect=0;fontColor=#232F3E;gradientColor=none;strokeColor=#ffffff;fillColor=#232F3E;dashed=0;verticalLabelPosition=middle;verticalAlign=bottom;align=center;html=1;whiteSpace=wrap;fontSize=10;fontStyle=1;spacing=3;shape=mxgraph.aws4.productIcon;prIcon=mxgraph.aws4.identity_and_access_management;" vertex="1" parent="2_EcdlZAJ1URfQFixVXK-26">
          <mxGeometry x="65" y="29" width="70" height="90" as="geometry" />
        </mxCell>
        <mxCell id="2_EcdlZAJ1URfQFixVXK-34" style="edgeStyle=orthogonalEdgeStyle;rounded=0;orthogonalLoop=1;jettySize=auto;html=1;exitX=0;exitY=0.5;exitDx=0;exitDy=0;exitPerimeter=0;entryX=1;entryY=0.5;entryDx=0;entryDy=0;" edge="1" parent="8ZB5fSzY0ybbtgeigNR6-1" source="2_EcdlZAJ1URfQFixVXK-29" target="2_EcdlZAJ1URfQFixVXK-26">
          <mxGeometry relative="1" as="geometry" />
        </mxCell>
        <mxCell id="2_EcdlZAJ1URfQFixVXK-29" value="MariaDB" style="shape=cylinder3;whiteSpace=wrap;html=1;boundedLbl=1;backgroundOutline=1;size=15;" vertex="1" parent="8ZB5fSzY0ybbtgeigNR6-1">
          <mxGeometry x="1200" y="870" width="60" height="80" as="geometry" />
        </mxCell>
        <mxCell id="2_EcdlZAJ1URfQFixVXK-30" value="User" style="text;html=1;align=center;verticalAlign=middle;whiteSpace=wrap;rounded=0;" vertex="1" parent="8ZB5fSzY0ybbtgeigNR6-1">
          <mxGeometry x="1170" y="950" width="120" height="30" as="geometry" />
        </mxCell>
        <mxCell id="2_EcdlZAJ1URfQFixVXK-33" style="edgeStyle=orthogonalEdgeStyle;rounded=0;orthogonalLoop=1;jettySize=auto;html=1;exitX=1;exitY=0.5;exitDx=0;exitDy=0;entryX=0;entryY=0.5;entryDx=0;entryDy=0;entryPerimeter=0;" edge="1" parent="8ZB5fSzY0ybbtgeigNR6-1" source="2_EcdlZAJ1URfQFixVXK-26" target="2_EcdlZAJ1URfQFixVXK-29">
          <mxGeometry relative="1" as="geometry" />
        </mxCell>
        <mxCell id="2_EcdlZAJ1URfQFixVXK-38" value="" style="outlineConnect=0;dashed=0;verticalLabelPosition=bottom;verticalAlign=top;align=center;html=1;shape=mxgraph.aws3.data_encryption_key;fillColor=#7D7C7C;gradientColor=none;" vertex="1" parent="8ZB5fSzY0ybbtgeigNR6-1">
          <mxGeometry x="620" y="690" width="46.5" height="60" as="geometry" />
        </mxCell>
        <mxCell id="2_EcdlZAJ1URfQFixVXK-40" value="JSON" style="text;html=1;align=center;verticalAlign=middle;resizable=0;points=[];autosize=1;strokeColor=none;fillColor=none;" vertex="1" parent="8ZB5fSzY0ybbtgeigNR6-1">
          <mxGeometry x="440" y="510" width="60" height="30" as="geometry" />
        </mxCell>
        <mxCell id="2_EcdlZAJ1URfQFixVXK-41" value="Router" style="text;html=1;align=center;verticalAlign=middle;resizable=0;points=[];autosize=1;strokeColor=none;fillColor=none;" vertex="1" parent="8ZB5fSzY0ybbtgeigNR6-1">
          <mxGeometry x="720" y="445" width="60" height="30" as="geometry" />
        </mxCell>
        <mxCell id="2_EcdlZAJ1URfQFixVXK-42" value="JSON" style="text;html=1;align=center;verticalAlign=middle;resizable=0;points=[];autosize=1;strokeColor=none;fillColor=none;" vertex="1" parent="8ZB5fSzY0ybbtgeigNR6-1">
          <mxGeometry x="800" y="295" width="60" height="30" as="geometry" />
        </mxCell>
        <mxCell id="2_EcdlZAJ1URfQFixVXK-43" value="JSON" style="text;html=1;align=center;verticalAlign=middle;resizable=0;points=[];autosize=1;strokeColor=none;fillColor=none;" vertex="1" parent="8ZB5fSzY0ybbtgeigNR6-1">
          <mxGeometry x="810" y="445" width="60" height="30" as="geometry" />
        </mxCell>
        <mxCell id="2_EcdlZAJ1URfQFixVXK-44" value="JSON" style="text;html=1;align=center;verticalAlign=middle;resizable=0;points=[];autosize=1;strokeColor=none;fillColor=none;" vertex="1" parent="8ZB5fSzY0ybbtgeigNR6-1">
          <mxGeometry x="810" y="655" width="60" height="30" as="geometry" />
        </mxCell>
      </root>
    </mxGraphModel>
  </diagram>
  <diagram name="Diagrama-Despliegue-Docker" id="_XSdzwwpOeVPBMIM0LFW">
    <mxGraphModel dx="1895" dy="1036" grid="1" gridSize="10" guides="1" tooltips="1" connect="1" arrows="1" fold="1" page="1" pageScale="1" pageWidth="850" pageHeight="1100" math="0" shadow="0">
      <root>
        <mxCell id="Vli7W6we5KdFfT47BqWE-0" />
        <mxCell id="Vli7W6we5KdFfT47BqWE-1" parent="Vli7W6we5KdFfT47BqWE-0" />
        <mxCell id="Vli7W6we5KdFfT47BqWE-2" value="Diagrama de Despliegue" style="text;html=1;align=center;verticalAlign=middle;whiteSpace=wrap;rounded=0;fontSize=18;fontStyle=1" vertex="1" parent="Vli7W6we5KdFfT47BqWE-1">
          <mxGeometry x="640" y="60" width="410" height="30" as="geometry" />
        </mxCell>
        <mxCell id="Vli7W6we5KdFfT47BqWE-21" value="Docker" style="text;html=1;align=center;verticalAlign=middle;whiteSpace=wrap;rounded=0;fontSize=18;fontStyle=1" vertex="1" parent="Vli7W6we5KdFfT47BqWE-1">
          <mxGeometry x="650" y="90" width="410" height="30" as="geometry" />
        </mxCell>
        <mxCell id="PjGRgg0oUKAeqg_EQM-s-0" value="Docker" style="swimlane;horizontal=0;whiteSpace=wrap;html=1;" vertex="1" parent="Vli7W6we5KdFfT47BqWE-1">
          <mxGeometry x="120" y="150" width="1430" height="900" as="geometry" />
        </mxCell>
        <mxCell id="Vli7W6we5KdFfT47BqWE-4" value="Client Web" style="swimlane;whiteSpace=wrap;html=1;" vertex="1" parent="PjGRgg0oUKAeqg_EQM-s-0">
          <mxGeometry x="140" y="220" width="200" height="210" as="geometry" />
        </mxCell>
        <mxCell id="Vli7W6we5KdFfT47BqWE-5" value="app-spa-portal&lt;div&gt;&lt;br&gt;Angular Framework&lt;/div&gt;" style="text;html=1;align=center;verticalAlign=middle;whiteSpace=wrap;rounded=0;" vertex="1" parent="Vli7W6we5KdFfT47BqWE-4">
          <mxGeometry x="11" y="143" width="170" height="50" as="geometry" />
        </mxCell>
        <mxCell id="Vli7W6we5KdFfT47BqWE-6" value="" style="sketch=0;outlineConnect=0;fontColor=#232F3E;gradientColor=none;strokeColor=#232F3E;fillColor=#ffffff;dashed=0;verticalLabelPosition=bottom;verticalAlign=top;align=center;html=1;fontSize=12;fontStyle=0;aspect=fixed;shape=mxgraph.aws4.resourceIcon;resIcon=mxgraph.aws4.topic;" vertex="1" parent="Vli7W6we5KdFfT47BqWE-4">
          <mxGeometry x="55" y="50" width="80" height="80" as="geometry" />
        </mxCell>
        <mxCell id="PjGRgg0oUKAeqg_EQM-s-67" value="&lt;b&gt;PORT:&amp;nbsp;&lt;/b&gt;4200" style="text;html=1;align=center;verticalAlign=middle;resizable=0;points=[];autosize=1;strokeColor=none;fillColor=none;" vertex="1" parent="Vli7W6we5KdFfT47BqWE-4">
          <mxGeometry y="30" width="90" height="30" as="geometry" />
        </mxCell>
        <mxCell id="Vli7W6we5KdFfT47BqWE-12" value="&lt;span style=&quot;font-weight: 400;&quot;&gt;asm-api-gateway&lt;/span&gt;" style="swimlane;whiteSpace=wrap;html=1;" vertex="1" parent="PjGRgg0oUKAeqg_EQM-s-0">
          <mxGeometry x="545" y="220" width="200" height="210" as="geometry" />
        </mxCell>
        <mxCell id="Vli7W6we5KdFfT47BqWE-13" value="API Gateway" style="sketch=0;outlineConnect=0;fontColor=#232F3E;gradientColor=none;strokeColor=#ffffff;fillColor=#232F3E;dashed=0;verticalLabelPosition=middle;verticalAlign=bottom;align=center;html=1;whiteSpace=wrap;fontSize=10;fontStyle=1;spacing=3;shape=mxgraph.aws4.productIcon;prIcon=mxgraph.aws4.api_gateway;" vertex="1" parent="Vli7W6we5KdFfT47BqWE-12">
          <mxGeometry x="60" y="60" width="80" height="110" as="geometry" />
        </mxCell>
        <mxCell id="Vli7W6we5KdFfT47BqWE-14" value="Spring Boot + Cloud Gateway" style="text;html=1;align=center;verticalAlign=middle;whiteSpace=wrap;rounded=0;" vertex="1" parent="Vli7W6we5KdFfT47BqWE-12">
          <mxGeometry x="10" y="170" width="180" height="30" as="geometry" />
        </mxCell>
        <mxCell id="PjGRgg0oUKAeqg_EQM-s-3" value="&lt;b&gt;PORT:&amp;nbsp;&lt;/b&gt;8081" style="text;html=1;align=center;verticalAlign=middle;resizable=0;points=[];autosize=1;strokeColor=none;fillColor=none;" vertex="1" parent="Vli7W6we5KdFfT47BqWE-12">
          <mxGeometry x="3" y="26" width="90" height="30" as="geometry" />
        </mxCell>
        <mxCell id="Vli7W6we5KdFfT47BqWE-16" value="Microservice_1" style="swimlane;whiteSpace=wrap;html=1;" vertex="1" parent="PjGRgg0oUKAeqg_EQM-s-0">
          <mxGeometry x="910" y="60" width="200" height="130" as="geometry" />
        </mxCell>
        <mxCell id="Vli7W6we5KdFfT47BqWE-17" value="" style="sketch=0;outlineConnect=0;fontColor=#232F3E;gradientColor=none;strokeColor=#232F3E;fillColor=#ffffff;dashed=0;verticalLabelPosition=bottom;verticalAlign=top;align=center;html=1;fontSize=12;fontStyle=0;aspect=fixed;shape=mxgraph.aws4.resourceIcon;resIcon=mxgraph.aws4.container_2;" vertex="1" parent="Vli7W6we5KdFfT47BqWE-16">
          <mxGeometry x="70" y="26" width="60" height="60" as="geometry" />
        </mxCell>
        <mxCell id="Vli7W6we5KdFfT47BqWE-18" value="asm-msa-customer&lt;div&gt;&lt;br&gt;&lt;div&gt;Spring Boot - OpenAPI&lt;/div&gt;&lt;/div&gt;" style="text;html=1;align=center;verticalAlign=middle;whiteSpace=wrap;rounded=0;" vertex="1" parent="Vli7W6we5KdFfT47BqWE-16">
          <mxGeometry x="10" y="86" width="180" height="40" as="geometry" />
        </mxCell>
        <mxCell id="PjGRgg0oUKAeqg_EQM-s-63" value="&lt;b&gt;PORT: &lt;/b&gt;8082" style="text;html=1;align=center;verticalAlign=middle;resizable=0;points=[];autosize=1;strokeColor=none;fillColor=none;" vertex="1" parent="Vli7W6we5KdFfT47BqWE-16">
          <mxGeometry x="-8" y="20" width="90" height="30" as="geometry" />
        </mxCell>
        <mxCell id="Vli7W6we5KdFfT47BqWE-22" value="API Gateway Pattern" style="text;html=1;align=center;verticalAlign=middle;whiteSpace=wrap;rounded=0;fontSize=14;fontStyle=0" vertex="1" parent="PjGRgg0oUKAeqg_EQM-s-0">
          <mxGeometry x="545" y="180" width="190" height="30" as="geometry" />
        </mxCell>
        <mxCell id="Vli7W6we5KdFfT47BqWE-23" value="Microservice_2" style="swimlane;whiteSpace=wrap;html=1;" vertex="1" parent="PjGRgg0oUKAeqg_EQM-s-0">
          <mxGeometry x="910" y="260" width="200" height="130" as="geometry" />
        </mxCell>
        <mxCell id="Vli7W6we5KdFfT47BqWE-24" value="" style="sketch=0;outlineConnect=0;fontColor=#232F3E;gradientColor=none;strokeColor=#232F3E;fillColor=#ffffff;dashed=0;verticalLabelPosition=bottom;verticalAlign=top;align=center;html=1;fontSize=12;fontStyle=0;aspect=fixed;shape=mxgraph.aws4.resourceIcon;resIcon=mxgraph.aws4.container_2;" vertex="1" parent="Vli7W6we5KdFfT47BqWE-23">
          <mxGeometry x="70" y="26" width="60" height="60" as="geometry" />
        </mxCell>
        <mxCell id="Vli7W6we5KdFfT47BqWE-25" value="asm-msa-account&lt;div&gt;&lt;br&gt;&lt;div&gt;Spring Boot - OpenAPI&lt;/div&gt;&lt;/div&gt;" style="text;html=1;align=center;verticalAlign=middle;whiteSpace=wrap;rounded=0;" vertex="1" parent="Vli7W6we5KdFfT47BqWE-23">
          <mxGeometry x="10" y="86" width="180" height="40" as="geometry" />
        </mxCell>
        <mxCell id="PjGRgg0oUKAeqg_EQM-s-64" value="&lt;b&gt;PORT: &lt;/b&gt;8083" style="text;html=1;align=center;verticalAlign=middle;resizable=0;points=[];autosize=1;strokeColor=none;fillColor=none;" vertex="1" parent="Vli7W6we5KdFfT47BqWE-23">
          <mxGeometry x="-10" y="20" width="90" height="30" as="geometry" />
        </mxCell>
        <mxCell id="Vli7W6we5KdFfT47BqWE-26" value="Microservice_3" style="swimlane;whiteSpace=wrap;html=1;" vertex="1" parent="PjGRgg0oUKAeqg_EQM-s-0">
          <mxGeometry x="910" y="470" width="200" height="130" as="geometry" />
        </mxCell>
        <mxCell id="Vli7W6we5KdFfT47BqWE-27" value="" style="sketch=0;outlineConnect=0;fontColor=#232F3E;gradientColor=none;strokeColor=#232F3E;fillColor=#ffffff;dashed=0;verticalLabelPosition=bottom;verticalAlign=top;align=center;html=1;fontSize=12;fontStyle=0;aspect=fixed;shape=mxgraph.aws4.resourceIcon;resIcon=mxgraph.aws4.container_2;" vertex="1" parent="Vli7W6we5KdFfT47BqWE-26">
          <mxGeometry x="70" y="26" width="60" height="60" as="geometry" />
        </mxCell>
        <mxCell id="Vli7W6we5KdFfT47BqWE-28" value="asm-msa-transaction&lt;div&gt;&lt;br&gt;&lt;div&gt;Spring Boot - OpenAPI&lt;/div&gt;&lt;/div&gt;" style="text;html=1;align=center;verticalAlign=middle;whiteSpace=wrap;rounded=0;" vertex="1" parent="Vli7W6we5KdFfT47BqWE-26">
          <mxGeometry x="10" y="86" width="180" height="40" as="geometry" />
        </mxCell>
        <mxCell id="PjGRgg0oUKAeqg_EQM-s-65" value="&lt;b&gt;PORT: &lt;/b&gt;8084" style="text;html=1;align=center;verticalAlign=middle;resizable=0;points=[];autosize=1;strokeColor=none;fillColor=none;" vertex="1" parent="Vli7W6we5KdFfT47BqWE-26">
          <mxGeometry x="-6" y="22" width="90" height="30" as="geometry" />
        </mxCell>
        <mxCell id="Vli7W6we5KdFfT47BqWE-32" value="MariaDB" style="shape=cylinder3;whiteSpace=wrap;html=1;boundedLbl=1;backgroundOutline=1;size=15;" vertex="1" parent="PjGRgg0oUKAeqg_EQM-s-0">
          <mxGeometry x="1305" y="280" width="60" height="80" as="geometry" />
        </mxCell>
        <mxCell id="Vli7W6we5KdFfT47BqWE-33" value="&lt;b&gt;PORT:&lt;/b&gt; 3306 --&amp;gt; 33307" style="text;html=1;align=center;verticalAlign=middle;whiteSpace=wrap;rounded=0;" vertex="1" parent="PjGRgg0oUKAeqg_EQM-s-0">
          <mxGeometry x="1260" y="360" width="150" height="30" as="geometry" />
        </mxCell>
        <mxCell id="Vli7W6we5KdFfT47BqWE-40" value="Identity Server" style="swimlane;whiteSpace=wrap;html=1;" vertex="1" parent="PjGRgg0oUKAeqg_EQM-s-0">
          <mxGeometry x="545" y="670" width="200" height="160" as="geometry" />
        </mxCell>
        <mxCell id="Vli7W6we5KdFfT47BqWE-41" value="asm-msa-identity" style="text;html=1;align=center;verticalAlign=middle;whiteSpace=wrap;rounded=0;" vertex="1" parent="Vli7W6we5KdFfT47BqWE-40">
          <mxGeometry x="10" y="119" width="180" height="40" as="geometry" />
        </mxCell>
        <mxCell id="Vli7W6we5KdFfT47BqWE-42" value="User Identity" style="sketch=0;outlineConnect=0;fontColor=#232F3E;gradientColor=none;strokeColor=#ffffff;fillColor=#232F3E;dashed=0;verticalLabelPosition=middle;verticalAlign=bottom;align=center;html=1;whiteSpace=wrap;fontSize=10;fontStyle=1;spacing=3;shape=mxgraph.aws4.productIcon;prIcon=mxgraph.aws4.identity_and_access_management;" vertex="1" parent="Vli7W6we5KdFfT47BqWE-40">
          <mxGeometry x="65" y="29" width="70" height="90" as="geometry" />
        </mxCell>
        <mxCell id="Vli7W6we5KdFfT47BqWE-44" value="MariaDB" style="shape=cylinder3;whiteSpace=wrap;html=1;boundedLbl=1;backgroundOutline=1;size=15;" vertex="1" parent="PjGRgg0oUKAeqg_EQM-s-0">
          <mxGeometry x="1305" y="710" width="60" height="80" as="geometry" />
        </mxCell>
        <mxCell id="Vli7W6we5KdFfT47BqWE-47" value="" style="outlineConnect=0;dashed=0;verticalLabelPosition=bottom;verticalAlign=top;align=center;html=1;shape=mxgraph.aws3.data_encryption_key;fillColor=#7D7C7C;gradientColor=none;" vertex="1" parent="PjGRgg0oUKAeqg_EQM-s-0">
          <mxGeometry x="730" y="630" width="46.5" height="60" as="geometry" />
        </mxCell>
        <mxCell id="PjGRgg0oUKAeqg_EQM-s-1" value="&lt;font style=&quot;font-size: 14px;&quot;&gt;&lt;b&gt;Docker Network:&lt;/b&gt; asm-network&lt;/font&gt;" style="text;html=1;align=center;verticalAlign=middle;whiteSpace=wrap;rounded=0;" vertex="1" parent="PjGRgg0oUKAeqg_EQM-s-0">
          <mxGeometry x="535" y="30" width="210" height="30" as="geometry" />
        </mxCell>
        <mxCell id="PjGRgg0oUKAeqg_EQM-s-2" value="" style="image;sketch=0;aspect=fixed;html=1;points=[];align=center;fontSize=12;image=img/lib/mscae/Docker.svg;" vertex="1" parent="PjGRgg0oUKAeqg_EQM-s-0">
          <mxGeometry x="50" y="19" width="98.78" height="81" as="geometry" />
        </mxCell>
        <mxCell id="PjGRgg0oUKAeqg_EQM-s-4" value="" style="endArrow=classic;startArrow=classic;html=1;rounded=0;dashed=1;" edge="1" parent="PjGRgg0oUKAeqg_EQM-s-0">
          <mxGeometry width="50" height="50" relative="1" as="geometry">
            <mxPoint x="750" y="320" as="sourcePoint" />
            <mxPoint x="900" y="140" as="targetPoint" />
          </mxGeometry>
        </mxCell>
        <mxCell id="PjGRgg0oUKAeqg_EQM-s-5" value="" style="endArrow=classic;startArrow=classic;html=1;rounded=0;dashed=1;" edge="1" parent="PjGRgg0oUKAeqg_EQM-s-0">
          <mxGeometry width="50" height="50" relative="1" as="geometry">
            <mxPoint x="750" y="325" as="sourcePoint" />
            <mxPoint x="890" y="325" as="targetPoint" />
          </mxGeometry>
        </mxCell>
        <mxCell id="PjGRgg0oUKAeqg_EQM-s-6" value="" style="endArrow=classic;startArrow=classic;html=1;rounded=0;dashed=1;" edge="1" parent="PjGRgg0oUKAeqg_EQM-s-0">
          <mxGeometry width="50" height="50" relative="1" as="geometry">
            <mxPoint x="750" y="335" as="sourcePoint" />
            <mxPoint x="900" y="560" as="targetPoint" />
          </mxGeometry>
        </mxCell>
        <mxCell id="PjGRgg0oUKAeqg_EQM-s-7" value="" style="endArrow=classic;startArrow=classic;html=1;rounded=0;dashed=1;" edge="1" parent="PjGRgg0oUKAeqg_EQM-s-0">
          <mxGeometry width="50" height="50" relative="1" as="geometry">
            <mxPoint x="340" y="310.47" as="sourcePoint" />
            <mxPoint x="540" y="310" as="targetPoint" />
          </mxGeometry>
        </mxCell>
        <mxCell id="PjGRgg0oUKAeqg_EQM-s-52" value="" style="endArrow=classic;startArrow=classic;html=1;rounded=0;dashed=1;" edge="1" parent="PjGRgg0oUKAeqg_EQM-s-0">
          <mxGeometry width="50" height="50" relative="1" as="geometry">
            <mxPoint x="340" y="330.47" as="sourcePoint" />
            <mxPoint x="540" y="330" as="targetPoint" />
          </mxGeometry>
        </mxCell>
        <mxCell id="PjGRgg0oUKAeqg_EQM-s-54" value="" style="endArrow=classic;startArrow=classic;html=1;rounded=0;dashed=1;" edge="1" parent="PjGRgg0oUKAeqg_EQM-s-0">
          <mxGeometry width="50" height="50" relative="1" as="geometry">
            <mxPoint x="620" y="440" as="sourcePoint" />
            <mxPoint x="620" y="660" as="targetPoint" />
          </mxGeometry>
        </mxCell>
        <mxCell id="PjGRgg0oUKAeqg_EQM-s-56" value="" style="endArrow=classic;startArrow=classic;html=1;rounded=0;dashed=1;" edge="1" parent="PjGRgg0oUKAeqg_EQM-s-0">
          <mxGeometry width="50" height="50" relative="1" as="geometry">
            <mxPoint x="650" y="440" as="sourcePoint" />
            <mxPoint x="650" y="660" as="targetPoint" />
          </mxGeometry>
        </mxCell>
        <mxCell id="PjGRgg0oUKAeqg_EQM-s-58" value="" style="endArrow=classic;startArrow=classic;html=1;rounded=0;dashed=1;" edge="1" parent="PjGRgg0oUKAeqg_EQM-s-0">
          <mxGeometry width="50" height="50" relative="1" as="geometry">
            <mxPoint x="1125" y="140" as="sourcePoint" />
            <mxPoint x="1280" y="310" as="targetPoint" />
          </mxGeometry>
        </mxCell>
        <mxCell id="PjGRgg0oUKAeqg_EQM-s-59" value="" style="endArrow=classic;startArrow=classic;html=1;rounded=0;dashed=1;" edge="1" parent="PjGRgg0oUKAeqg_EQM-s-0">
          <mxGeometry width="50" height="50" relative="1" as="geometry">
            <mxPoint x="1120" y="324.29" as="sourcePoint" />
            <mxPoint x="1280" y="324" as="targetPoint" />
          </mxGeometry>
        </mxCell>
        <mxCell id="PjGRgg0oUKAeqg_EQM-s-60" value="" style="endArrow=classic;startArrow=classic;html=1;rounded=0;dashed=1;" edge="1" parent="PjGRgg0oUKAeqg_EQM-s-0">
          <mxGeometry width="50" height="50" relative="1" as="geometry">
            <mxPoint x="1120" y="540.29" as="sourcePoint" />
            <mxPoint x="1280" y="340" as="targetPoint" />
          </mxGeometry>
        </mxCell>
        <mxCell id="PjGRgg0oUKAeqg_EQM-s-61" value="" style="endArrow=classic;startArrow=classic;html=1;rounded=0;dashed=1;" edge="1" parent="PjGRgg0oUKAeqg_EQM-s-0">
          <mxGeometry width="50" height="50" relative="1" as="geometry">
            <mxPoint x="755" y="740" as="sourcePoint" />
            <mxPoint x="1300" y="740" as="targetPoint" />
          </mxGeometry>
        </mxCell>
        <mxCell id="PjGRgg0oUKAeqg_EQM-s-62" value="" style="endArrow=classic;startArrow=classic;html=1;rounded=0;dashed=1;" edge="1" parent="PjGRgg0oUKAeqg_EQM-s-0">
          <mxGeometry width="50" height="50" relative="1" as="geometry">
            <mxPoint x="755" y="770" as="sourcePoint" />
            <mxPoint x="1300" y="770" as="targetPoint" />
          </mxGeometry>
        </mxCell>
        <mxCell id="PjGRgg0oUKAeqg_EQM-s-66" value="&lt;b&gt;PORT: &lt;/b&gt;8086" style="text;html=1;align=center;verticalAlign=middle;resizable=0;points=[];autosize=1;strokeColor=none;fillColor=none;" vertex="1" parent="PjGRgg0oUKAeqg_EQM-s-0">
          <mxGeometry x="595" y="840" width="90" height="30" as="geometry" />
        </mxCell>
        <mxCell id="1w5CrmMasKgM_qEaXE22-0" value="&lt;font style=&quot;font-size: 16px;&quot;&gt;&lt;b&gt;Docker-Compose&lt;/b&gt;&lt;/font&gt;" style="text;html=1;align=center;verticalAlign=middle;resizable=0;points=[];autosize=1;strokeColor=none;fillColor=none;" vertex="1" parent="PjGRgg0oUKAeqg_EQM-s-0">
          <mxGeometry x="30" y="120" width="160" height="30" as="geometry" />
        </mxCell>
        <mxCell id="1w5CrmMasKgM_qEaXE22-1" value="Cluster" style="sketch=0;outlineConnect=0;fontColor=#232F3E;gradientColor=none;strokeColor=#232F3E;fillColor=#ffffff;dashed=0;verticalLabelPosition=bottom;verticalAlign=top;align=center;html=1;fontSize=12;fontStyle=0;aspect=fixed;shape=mxgraph.aws4.resourceIcon;resIcon=mxgraph.aws4.cluster;" vertex="1" parent="PjGRgg0oUKAeqg_EQM-s-0">
          <mxGeometry x="50" y="680" width="150" height="150" as="geometry" />
        </mxCell>
      </root>
    </mxGraphModel>
  </diagram>
</mxfile>
